# xmcd
#
# Track frame offsets: 
#        150
#        16579
#        34725
#        53322
#        74996
#        96737
#        111966
#        131077
#        152621
#        170472
#        187568
#        209087
#        234385
#        257634
#
# Disc length: 3692 seconds
#
# Revision: 0
# Processed by: cddbd v1.5.2PL0 Copyright (c) Steve Scherf et al.
# Submitted via: ExactAudioCopy v0.95b4
#
DISCID=bd0e6a0e
DTITLE=Bubba Mac - Just Life
DYEAR=2001
DGENRE=Blues
TTITLE0=I Know Now (What I Didn't Know Then)
TTITLE1=Thank You Baby
TTITLE2=You Ain't Woman Enough
TTITLE3=Get It Up
TTITLE4=Just Walkin'
TTITLE5=Walkin' With My Baby
TTITLE6=Mr. Runaround Town
TTITLE7=Hey Fine Lady
TTITLE8=Take Me Back
TTITLE9=Designated Smoking Area Blues
TTITLE10=60's Generation
TTITLE11=My Man
TTITLE12=It's Just A Matter Of Time
TTITLE13=I Got The Feeling (In My Soul)
EXTD=
EXTT0=
EXTT1=
EXTT2=
EXTT3=
EXTT4=
EXTT5=
EXTT6=
EXTT7=
EXTT8=
EXTT9=
EXTT10=
EXTT11=
EXTT12=
EXTT13=
PLAYORDER=
